Coordinates
version=1
nRows=14
nColumns=24
inDegrees=yes

Units are S.I. units (second, meters, Newtons, ...)
Angles are in degrees.

endheader
time	pelvis_tilt	pelvis_list	pelvis_rotation	pelvis_tx	pelvis_ty	pelvis_tz	hip_flexion_r	hip_adduction_r	hip_rotation_r	knee_angle_r	ankle_angle_r	subtalar_angle_r	mtp_angle_r	hip_flexion_l	hip_adduction_l	hip_rotation_l	knee_angle_l	ankle_angle_l	subtalar_angle_l	mtp_angle_l	lumbar_extension	lumbar_bending	lumbar_rotation
      0.84500000	      6.34725691	     -7.42426900	     -0.69036026	     -0.75592405	      0.89725145	      0.05702405	    -26.63711553	      9.81482919	     -1.49651527	    -12.18987491	     15.22711861	      3.59957758	     46.22942790	     15.78581045	     -5.56546987	     -5.17401268	     -4.68763385	     11.02052391	      1.09182841	     27.75003682	    -17.96721037	      5.76026668	      2.58926266
      0.85000000	      6.17671096	     -7.29065496	     -0.81550377	     -0.74805153	      0.89636291	      0.05674587	    -26.26102097	      9.52409667	     -1.32057946	    -13.46919115	     14.99636584	      3.79402777	     46.48802763	     16.00621510	     -5.36019150	     -5.11710012	     -5.45419705	     10.75015186	      0.87039091	     28.17681913	    -17.73697755	      5.57859153	      2.51768790
      0.85500000	      6.02461416	     -7.10530995	     -0.76294358	     -0.74015615	      0.89549049	      0.05619104	    -25.86524199	      9.25359630	     -1.40483322	    -14.74884170	     14.39395465	      3.71710564	     48.81475308	     16.25304698	     -5.03949298	     -4.75691091	     -6.29521742	     10.21179352	      0.18670331	     30.34482654	    -17.50622442	      5.38542976	      2.28669232
      0.86000000	      5.80512250	     -6.90699013	     -0.70078837	     -0.73231354	      0.89457350	      0.05556182	    -25.30047193	      8.95996294	     -1.55813505	    -16.20969457	     13.97000342	      4.07048966	     49.43975201	     16.60945304	     -4.69983771	     -4.36767817	     -7.26893290	      9.87066372	     -0.28993689	     30.61343699	    -17.20608031	      5.18934221	      2.02160950
      0.86500000	      5.61012743	     -6.65321678	     -0.62281845	     -0.72448541	      0.89376664	      0.05498093	    -24.71826090	      8.63566543	     -1.67844043	    -17.70144220	     13.25975229	      3.91919907	     52.10230804	     16.94716130	     -4.30163240	     -3.99642578	     -8.28847510	      9.34958229	     -0.92937620	     31.87113876	    -16.93332989	      4.92059548	      1.71421504
      0.87000000	      5.35273882	     -6.38628617	     -0.47607142	     -0.71672484	      0.89289733	      0.05424423	    -23.97854257	      8.31542570	     -1.90560716	    -19.34531664	     12.60879844	      3.97004436	     53.48622636	     17.39418907	     -3.86052294	     -3.48240699	     -9.40323183	      8.91361468	     -1.58153235	     32.49739184	    -16.59354743	      4.66158182	      1.33069288
      0.87500000	      5.09796389	     -6.09937994	     -0.36865640	     -0.70900786	      0.89213802	      0.05353158	    -23.16305332	      7.94731876	     -2.12005027	    -21.10164565	     11.77164733	      4.03237740	     55.54384534	     17.81952257	     -3.41091613	     -3.03546498	    -10.51874425	      8.40192425	     -2.20141968	     33.33795628	    -16.26597704	      4.37126742	      1.01756221
      0.88000000	      4.80173769	     -5.79524289	     -0.14617303	     -0.70135669	      0.89132691	      0.05264887	    -22.23312899	      7.60358562	     -2.44912239	    -22.95747960	     10.91208487	      4.04054243	     56.60794848	     18.33420177	     -2.90014510	     -2.40003554	    -11.71515852	      7.97730271	     -2.85088613	     33.67105208	    -15.89071460	      4.08796542	      0.57136284
      0.88500000	      4.53239959	     -5.43105772	     -0.02726859	     -0.69372113	      0.89064814	      0.05189962	    -21.25460484	      7.15284531	     -2.67666297	    -24.92469481	      9.93048126	      3.94619650	     58.87338071	     18.78256993	     -2.36096570	     -1.95182143	    -12.90252164	      7.61528906	     -3.49189831	     34.41936441	    -15.55567629	      3.70910353	      0.22326774
      0.89000000	      4.24124474	     -5.04708193	      0.15464666	     -0.68615391	      0.88993774	      0.05101980	    -20.17164732	      6.68350081	     -3.02502005	    -27.02833946	      8.96238349	      4.00207073	     59.40986934	     19.26025282	     -1.77077856	     -1.39017299	    -14.10489631	      7.34937281	     -4.14681780	     34.49446637	    -15.20135052	      3.32444184	     -0.17607871
      0.89500000	      3.96846725	     -4.65486657	      0.36017700	     -0.67860951	      0.88930387	      0.05017506	    -19.07148565	      6.22367075	     -3.34666058	    -29.14239106	      7.70884275	      3.57088800	     61.56576342	     19.71545538	     -1.17966592	     -0.88506849	    -15.31700627	      7.12840989	     -4.63516044	     34.96867930	    -14.87023085	      2.92614961	     -0.61637240
      0.90000000	      3.71817959	     -4.19532000	      0.45535429	     -0.67112234	      0.88877200	      0.04939759	    -17.90267833	      5.63319143	     -3.59108739	    -31.42388057	      6.57281570	      3.42585438	     61.95622497	     20.06845997	     -0.54120297	     -0.47445960	    -16.41740330	      6.95438298	     -5.27802159	     34.95475354	    -14.57757164	      2.43467237	     -0.89794276
      0.90500000	      3.47135749	     -3.74020916	      0.59797108	     -0.66368249	      0.88824959	      0.04861257	    -16.69976805	      5.06724580	     -3.85525135	    -33.72387130	      5.31762680	      3.01508921	     62.46000713	     20.42221180	      0.09507724	     -0.06905200	    -17.53008333	      6.90687673	     -5.75910768	     34.95181164	    -14.29314553	      1.95040816	     -1.23371065
      0.91000000	      3.24354309	     -3.28628642	      0.71028553	     -0.65626654	      0.88781171	      0.04788049	    -15.47495518	      4.48873262	     -4.06729260	    -36.04868860	      3.88379177	      2.50309811	     63.07866931	     20.71711131	      0.70877757	      0.23657797	    -18.58515011	      6.91913745	     -6.16023632	     34.89870834	    -14.03524388	      1.46117136	     -1.54594115
